<?xml version="1.0" encoding="UTF-8" standalone="no"?>
<svg
   xmlns:dc="http://purl.org/dc/elements/1.1/"
   xmlns:cc="http://creativecommons.org/ns#"
   xmlns:rdf="http://www.w3.org/1999/02/22-rdf-syntax-ns#"
   xmlns:svg="http://www.w3.org/2000/svg"
   xmlns="http://www.w3.org/2000/svg"
   id="svg8"
   version="1.1"
   viewBox="0 0 74.411911 11.959167"
   height="11.959167mm"
   width="74.411911mm">
  <defs
     id="defs2" />
  <metadata
     id="metadataSVG">
    <rdf:RDF>
      <cc:Work
         rdf:about="">
        <dc:format>image/svg+xml</dc:format>
        <dc:type
           rdf:resource="http://purl.org/dc/dcmitype/StillImage" />
        <dc:title></dc:title>
      </cc:Work>
    </rdf:RDF>
  </metadata>
  <g
     transform="translate(-55.834642,-62.021265)"
     id="PLACEHOLDER_svg_layer">
    <path
       id="PLACEHOLDER_svg_path"
       style="font-style:normal;font-variant:normal;font-weight:bold;font-stretch:normal;font-size:medium;line-height:1.25;font-family:'Zilla Slab Highlight';-inkscape-font-specification:'Zilla Slab Highlight Bold';letter-spacing:0px;word-spacing:0px;fill:#ffffff;fill-opacity:1;stroke:none;stroke-width:0.26458332;stroke-opacity:1"
       d="m 128.25688,71.726181 h 1.75684 v -1.2065 h -0.8255 l -0.93134,-1.7145 c 0.39511,-0.155222 0.71261,-0.388055 0.9525,-0.6985 0.23989,-0.3175 0.35984,-0.709083 0.35984,-1.17475 0,-0.691444 -0.22931,-1.210027 -0.68792,-1.55575 -0.45861,-0.352777 -1.11478,-0.529166 -1.9685,-0.529166 h -3.1115 v 1.2065 h 0.74083 v 4.466166 h -0.74083 v 1.2065 h 2.89983 v -1.2065 h -0.74083 v -1.418167 h 0.93133 z m -0.21166,-4.7625 c 0,0.324555 -0.0988,0.575028 -0.29634,0.751417 -0.19755,0.176389 -0.56797,0.264583 -1.11125,0.264583 h -0.67733 v -1.926166 h 0.6985 c 0.51505,0 0.87489,0.06703 1.0795,0.201083 0.20461,0.127 0.30692,0.363361 0.30692,0.709083 z m -10.52777,4.7625 h 5.31283 l 0.21167,-2.010833 -1.2065,-0.105834 -0.21167,0.910167 h -1.94733 v -1.651 h 2.89983 v -1.195917 h -2.89983 v -1.619249 h 1.88383 l 0.21167,0.910166 1.2065,-0.105833 -0.21167,-2.010833 h -5.24933 v 1.2065 h 0.74083 v 4.466166 h -0.74083 z m -0.66956,-3.471333 c 0,-1.016 -0.29986,-1.837972 -0.89959,-2.465917 -0.59267,-0.627944 -1.47814,-0.941916 -2.65641,-0.941916 h -3.15384 v 1.2065 h 0.74084 v 4.466166 h -0.74084 v 1.2065 h 3.2385 c 1.08656,0 1.93676,-0.3175 2.55059,-0.9525 0.61383,-0.635 0.92075,-1.474611 0.92075,-2.518833 z m -1.524,0.02117 c 0,0.790223 -0.17992,1.361723 -0.53975,1.7145 -0.35278,0.352778 -0.86078,0.529167 -1.524,0.529167 h -0.96309 v -4.466166 h 0.96309 c 1.37583,0 2.06375,0.740833 2.06375,2.222499 z m -11.09762,3.450163 h 5.16467 l 0.21167,-2.434167 -1.2065,-0.105833 -0.21167,1.3335 h -1.79917 v -4.466166 h 0.96309 v -1.2065 h -3.12209 v 1.2065 h 0.74084 v 4.466166 h -0.74084 z m -0.67618,-3.450167 c 0,-0.966611 -0.31044,-1.795638 -0.93133,-2.487083 -0.61383,-0.6985 -1.47108,-1.04775 -2.57175,-1.04775 -1.079499,0 -1.936749,0.342195 -2.571749,1.026584 -0.635,0.684389 -0.9525,1.527527 -0.9525,2.529416 0,0.959555 0.299861,1.788583 0.899583,2.487083 0.599722,0.6985 1.460501,1.04775 2.582336,1.04775 1.11477,0 1.98261,-0.34925 2.6035,-1.04775 0.62794,-0.6985 0.94191,-1.534583 0.94191,-2.50825 z m -1.53458,0.04233 c 0,0.670277 -0.15522,1.217083 -0.46567,1.640416 -0.31044,0.416278 -0.8008,0.624417 -1.47108,0.624417 -0.726722,0 -1.245305,-0.229306 -1.555749,-0.687917 -0.310445,-0.458611 -0.465667,-1.001888 -0.465667,-1.629833 0,-0.649111 0.15875,-1.188861 0.47625,-1.61925 0.3175,-0.437444 0.818445,-0.656166 1.502836,-0.656166 0.64205,0 1.13241,0.204611 1.47108,0.613833 0.33867,0.409222 0.508,0.980722 0.508,1.7145 z m -9.06694,3.407837 h 2.899834 v -1.2065 H 95.10757 v -4.466166 h 0.740834 v -1.2065 H 92.94857 v 1.2065 h 0.740834 v 1.587499 h -2.910417 v -1.587499 h 0.740833 v -1.2065 h -2.899833 v 1.2065 h 0.740834 v 4.466166 h -0.740834 v 1.2065 h 2.899833 v -1.2065 h -0.740833 v -1.68275 h 2.910417 v 1.68275 H 92.94857 Z m -10.612434,0 h 5.312833 l 0.211666,-2.010833 -1.2065,-0.105834 -0.211666,0.910167 h -1.947333 v -1.651 h 2.899833 v -1.195917 h -2.899833 v -1.619249 h 1.883833 l 0.211666,0.910166 1.2065,-0.105833 -0.211666,-2.010833 h -5.249333 v 1.2065 h 0.740833 v 4.466166 h -0.740833 z m -0.92687,-0.73025 0.137584,-1.61925 -1.153584,-0.105833 -0.148166,1.026583 c -0.3175,0.1905 -0.754945,0.28575 -1.312334,0.28575 -0.592667,0 -1.0795,-0.179917 -1.4605,-0.53975 -0.381,-0.359833 -0.5715,-0.938389 -0.5715,-1.735667 0,-0.754944 0.172861,-1.329972 0.518584,-1.725083 0.352777,-0.395111 0.825499,-0.592666 1.418166,-0.592666 0.232833,0 0.479778,0.03175 0.740834,0.09525 0.261055,0.0635 0.483305,0.155222 0.66675,0.275166 l 0.148166,0.910167 1.153584,-0.105833 -0.169334,-1.598084 c -0.218722,-0.204611 -0.53975,-0.391583 -0.963083,-0.560916 -0.423333,-0.176389 -0.927806,-0.264584 -1.513417,-0.264584 -0.867833,0 -1.559278,0.194028 -2.074333,0.582084 -0.515055,0.388055 -0.885472,0.864305 -1.11125,1.42875 -0.225778,0.564444 -0.338667,1.114777 -0.338667,1.650999 0,1.023056 0.331611,1.852084 0.994834,2.487084 0.663222,0.627944 1.485194,0.941916 2.465916,0.941916 0.493889,0 0.987778,-0.07761 1.481667,-0.232833 0.500945,-0.155222 0.864306,-0.356305 1.090083,-0.60325 z m -6.839975,-0.47625 -2.4765,-5.672666 h -2.360083 v 1.2065 h 0.9525 l -1.9685,4.466166 -0.408451,0 v 1.2065 h 2.493367 v -1.2065 H 70.15604 l 0.28575,-0.6985 h 2.338917 l 0.254,0.6985 h -0.550333 l 0,1.2065 h 2.532558 l 0,-1.2065 z m -2.88925,-3.65125 0.719667,1.93675 h -1.55575 l 0.772583,-1.93675 z m -8.98095,4.85775 h 5.164667 l 0.211666,-2.434167 -1.2065,-0.105833 -0.211666,1.3335 h -1.799167 v -4.466166 h 0.963083 v -1.2065 h -3.122083 v 1.2065 h 0.740833 v 4.466166 h -0.740833 z m -6.864449,2.25425 V 62.021265 h 74.411908 v 11.959166 z m 6.2865,-6.88975 c 0,-0.691444 -0.22225,-1.238249 -0.66675,-1.640416 -0.4445,-0.402167 -1.093611,-0.60325 -1.947333,-0.60325 h -3.153834 v 1.2065 h 0.740834 v 4.466166 h -0.740834 v 1.2065 h 3.217334 v -1.2065 h -1.058334 v -1.100667 h 1.058334 c 0.677333,0 1.27,-0.1905 1.778,-0.5715 0.515055,-0.388055 0.772583,-0.973666 0.772583,-1.756833 z m -1.524,0.02117 c 0,0.331611 -0.09525,0.599722 -0.28575,0.804333 -0.183445,0.204611 -0.518584,0.306917 -1.005417,0.306917 h -0.79375 v -2.169583 h 0.814917 c 0.472722,0 0.800805,0.09172 0.98425,0.275166 0.1905,0.183445 0.28575,0.4445 0.28575,0.783167 z" />
  </g>
</svg>
